<svg id="e5y2jk2x8yne1" xmlns="http://www.w3.org/2000/svg" xmlns:xlink="http://www.w3.org/1999/xlink" viewBox="0 0 480 480" shape-rendering="geometricPrecision" text-rendering="geometricPrecision"><style><![CDATA[#e5y2jk2x8yne2_ts {animation: e5y2jk2x8yne2_ts__ts 10000ms linear infinite normal forwards}@keyframes e5y2jk2x8yne2_ts__ts { 0% {transform: translate(248.584393px,209.258746px) scale(1,1)} 3% {transform: translate(248.584393px,209.258746px) scale(1,1)} 6% {transform: translate(248.584393px,209.258746px) scale(1.200000,1.200000)} 9% {transform: translate(248.584393px,209.258746px) scale(1,1)} 12% {transform: translate(248.584393px,209.258746px) scale(1.200000,1.200000)} 15% {transform: translate(248.584393px,209.258746px) scale(1,1)} 18% {transform: translate(248.584393px,209.258746px) scale(1.200000,1.200000)} 100% {transform: translate(248.584393px,209.258746px) scale(1.200000,1.200000)} }#e5y2jk2x8yne2 {animation: e5y2jk2x8yne2_c_o 10000ms linear infinite normal forwards}@keyframes e5y2jk2x8yne2_c_o { 0% {opacity: 1} 15% {opacity: 1} 17% {opacity: 0} 100% {opacity: 0} }#e5y2jk2x8yne6_tr {animation: e5y2jk2x8yne6_tr__tr 10000ms linear infinite normal forwards}@keyframes e5y2jk2x8yne6_tr__tr { 0% {transform: translate(252.227196px,234.977806px) rotate(2880deg)} 13% {transform: translate(252.227196px,234.977806px) rotate(2880deg)} 17% {transform: translate(252.227196px,234.977806px) rotate(0deg)} 100% {transform: translate(252.227196px,234.977806px) rotate(0deg)} }#e5y2jk2x8yne6 {animation: e5y2jk2x8yne6_c_o 10000ms linear infinite normal forwards}@keyframes e5y2jk2x8yne6_c_o { 0% {opacity: 1} 13% {opacity: 1} 17% {opacity: 0} 100% {opacity: 0} }#e5y2jk2x8yne7_to {animation: e5y2jk2x8yne7_to__to 10000ms linear infinite normal forwards}@keyframes e5y2jk2x8yne7_to__to { 0% {transform: translate(383.294732px,312.694241px)} 11% {transform: translate(383.294732px,312.694241px)} 13% {transform: translate(249.840647px,243.476890px)} 100% {transform: translate(249.840647px,243.476890px)} }#e5y2jk2x8yne7_tr {animation: e5y2jk2x8yne7_tr__tr 10000ms linear infinite normal forwards}@keyframes e5y2jk2x8yne7_tr__tr { 0% {transform: rotate(0deg)} 13% {transform: rotate(0deg)} 17% {transform: rotate(2880deg)} 100% {transform: rotate(2880deg)} }#e5y2jk2x8yne7_tk {animation: e5y2jk2x8yne7_tk__tk 10000ms linear infinite normal forwards}@keyframes e5y2jk2x8yne7_tk__tk { 0% {transform: skewX(0deg) skewY(0deg)} 3% {transform: skewX(0deg) skewY(0deg)} 5% {transform: skewX(5deg) skewY(0deg)} 7% {transform: skewX(-5deg) skewY(0deg)} 9% {transform: skewX(5deg) skewY(0deg)} 11% {transform: skewX(-5deg) skewY(0deg)} 100% {transform: skewX(-5deg) skewY(0deg)} }#e5y2jk2x8yne30_to {animation: e5y2jk2x8yne30_to__to 10000ms linear infinite normal forwards}@keyframes e5y2jk2x8yne30_to__to { 0% {transform: translate(30.734400px,204.338000px)} 3% {transform: translate(30.734400px,204.338000px)} 13% {transform: translate(240px,204.340000px)} 100% {transform: translate(240px,204.340000px)} }#e5y2jk2x8yne30_tr {animation: e5y2jk2x8yne30_tr__tr 10000ms linear infinite normal forwards}@keyframes e5y2jk2x8yne30_tr__tr { 0% {transform: rotate(0deg)} 3% {transform: rotate(0deg)} 13% {transform: rotate(1800deg)} 100% {transform: rotate(1800deg)} }#e5y2jk2x8yne46_to {animation: e5y2jk2x8yne46_to__to 10000ms linear infinite normal forwards}@keyframes e5y2jk2x8yne46_to__to { 0% {transform: translate(381.464000px,22.127100px)} 3% {transform: translate(381.464000px,22.127100px)} 5% {transform: translate(359.073739px,58.298944px)} 7% {transform: translate(359.070000px,58.300000px)} 9% {transform: translate(311.006286px,106.363713px)} 11% {transform: translate(311.006286px,106.363713px)} 13% {transform: translate(255.545449px,203.752808px)} 100% {transform: translate(255.545449px,203.752808px)} }#e5y2jk2x8yne46_tr {animation: e5y2jk2x8yne46_tr__tr 10000ms linear infinite normal forwards}@keyframes e5y2jk2x8yne46_tr__tr { 0% {transform: rotate(0deg)} 13% {transform: rotate(0deg)} 17% {transform: rotate(2880deg)} 100% {transform: rotate(2880deg)} }#e5y2jk2x8yne46_ts {animation: e5y2jk2x8yne46_ts__ts 10000ms linear infinite normal forwards}@keyframes e5y2jk2x8yne46_ts__ts { 0% {transform: scale(0.118887,0.130940)} 3% {transform: scale(0.118887,0.130940)} 5% {transform: scale(0.120000,0.110000)} 7% {transform: scale(0.120000,0.130000)} 9% {transform: scale(0.120000,0.110000)} 11% {transform: scale(0.120000,0.130000)} 13% {transform: scale(0.120000,0.110000)} 100% {transform: scale(0.120000,0.110000)} }#e5y2jk2x8yne64_to {animation: e5y2jk2x8yne64_to__to 10000ms linear infinite normal forwards}@keyframes e5y2jk2x8yne64_to__to { 0% {transform: translate(76.395700px,23.864000px)} 9% {transform: translate(76.395700px,23.864000px)} 13% {transform: translate(239.171750px,201.896632px)} 100% {transform: translate(239.171750px,201.896632px)} }#e5y2jk2x8yne64_tr {animation: e5y2jk2x8yne64_tr__tr 10000ms linear infinite normal forwards}@keyframes e5y2jk2x8yne64_tr__tr { 0% {transform: rotate(0deg)} 13% {transform: rotate(0deg)} 17% {transform: rotate(720deg)} 100% {transform: rotate(720deg)} }#e5y2jk2x8yne64_ts {animation: e5y2jk2x8yne64_ts__ts 10000ms linear infinite normal forwards}@keyframes e5y2jk2x8yne64_ts__ts { 0% {transform: scale(0.143276,0.130065)} 3% {transform: scale(0.143276,0.130065)} 6% {transform: scale(0.160000,0.150000)} 9% {transform: scale(0.143276,0.130065)} 100% {transform: scale(0.143276,0.130065)} }#e5y2jk2x8yne79_to {animation: e5y2jk2x8yne79_to__to 10000ms linear infinite normal forwards}@keyframes e5y2jk2x8yne79_to__to { 0% {transform: translate(98.322700px,420.596164px)} 3% {transform: translate(98.322700px,420.596164px)} 13% {transform: translate(240px,255.415616px)} 100% {transform: translate(240px,255.415616px)} }#e5y2jk2x8yne79_tr {animation: e5y2jk2x8yne79_tr__tr 10000ms linear infinite normal forwards}@keyframes e5y2jk2x8yne79_tr__tr { 0% {transform: rotate(0deg)} 3% {transform: rotate(0deg)} 13% {transform: rotate(720deg)} 17% {transform: rotate(1800deg)} 100% {transform: rotate(1800deg)} }#e5y2jk2x8yne83_ts {animation: e5y2jk2x8yne83_ts__ts 10000ms linear infinite normal forwards}@keyframes e5y2jk2x8yne83_ts__ts { 0% {transform: translate(296.078555px,221.096021px) scale(0,0)} 15% {transform: translate(296.078555px,221.096021px) scale(0,0)} 17% {transform: translate(296.078555px,221.096021px) scale(1.500000,1.500000)} 100% {transform: translate(296.078555px,221.096021px) scale(1.500000,1.500000)} }#e5y2jk2x8yne91_to {animation: e5y2jk2x8yne91_to__to 10000ms linear infinite normal forwards}@keyframes e5y2jk2x8yne91_to__to { 0% {transform: translate(284.804303px,235.016620px)} 24% {transform: translate(284.804303px,235.016620px)} 29% {transform: translate(291.971939px,229.586413px)} 36% {transform: translate(284.804303px,235.016620px)} 100% {transform: translate(284.804303px,235.016620px)} }#e5y2jk2x8yne91_tr {animation: e5y2jk2x8yne91_tr__tr 10000ms linear infinite normal forwards}@keyframes e5y2jk2x8yne91_tr__tr { 0% {transform: rotate(0deg)} 24% {transform: rotate(0deg)} 29% {transform: rotate(45deg)} 36% {transform: rotate(0deg)} 100% {transform: rotate(0deg)} }#e5y2jk2x8yne92_to {animation: e5y2jk2x8yne92_to__to 10000ms linear infinite normal forwards}@keyframes e5y2jk2x8yne92_to__to { 0% {transform: translate(305.373140px,235.016620px)} 24% {transform: translate(305.373140px,235.016620px)} 29% {transform: translate(292.175858px,229.586424px)} 36% {transform: translate(305.373140px,235.016620px)} 100% {transform: translate(305.373140px,235.016620px)} }#e5y2jk2x8yne92_tr {animation: e5y2jk2x8yne92_tr__tr 10000ms linear infinite normal forwards}@keyframes e5y2jk2x8yne92_tr__tr { 0% {transform: rotate(0deg)} 24% {transform: rotate(0deg)} 29% {transform: rotate(-45deg)} 36% {transform: rotate(0deg)} 100% {transform: rotate(0deg)} }#e5y2jk2x8yne93_to {animation: e5y2jk2x8yne93_to__to 10000ms linear infinite normal forwards}@keyframes e5y2jk2x8yne93_to__to { 0% {transform: translate(301.350480px,235.018480px)} 24% {transform: translate(301.350480px,235.018480px)} 29% {transform: translate(292.379788px,231.483472px)} 36% {transform: translate(301.350480px,235.018480px)} 100% {transform: translate(301.350480px,235.018480px)} }#e5y2jk2x8yne93_tr {animation: e5y2jk2x8yne93_tr__tr 10000ms linear infinite normal forwards}@keyframes e5y2jk2x8yne93_tr__tr { 0% {transform: rotate(0deg)} 24% {transform: rotate(0deg)} 29% {transform: rotate(-45deg)} 36% {transform: rotate(0deg)} 100% {transform: rotate(0deg)} }#e5y2jk2x8yne94_ts {animation: e5y2jk2x8yne94_ts__ts 10000ms linear infinite normal forwards}@keyframes e5y2jk2x8yne94_ts__ts { 0% {transform: translate(281.227115px,140.508975px) scale(0,0)} 17% {transform: translate(281.227115px,140.508975px) scale(0,0)} 21% {transform: translate(281.227115px,140.508975px) scale(1,1)} 24% {transform: translate(281.227115px,140.508975px) scale(0,0)} 28% {transform: translate(281.227115px,140.508975px) scale(1,1)} 100% {transform: translate(281.227115px,140.508975px) scale(1,1)} }#e5y2jk2x8yne95_ts {animation: e5y2jk2x8yne95_ts__ts 10000ms linear infinite normal forwards}@keyframes e5y2jk2x8yne95_ts__ts { 0% {transform: translate(324.153375px,177.261955px) scale(0,0)} 19% {transform: translate(324.153375px,177.261955px) scale(0,0)} 22% {transform: translate(324.153375px,177.261955px) scale(1,1)} 25% {transform: translate(324.153375px,177.261955px) scale(0,0)} 28% {transform: translate(324.153375px,177.261955px) scale(1,1)} 100% {transform: translate(324.153375px,177.261955px) scale(1,1)} }]]></style><g id="e5y2jk2x8yne2_ts" transform="translate(248.584393,209.258746) scale(1,1)"><path id="e5y2jk2x8yne2" d="M77.192112,40.301227C3.366580,-24.598577,-89.814473,88.701525,77.192112,172.401877C244.198696,88.701525,151.017643,-24.598577,77.192112,40.301227Z" transform="translate(-77.192112,-96.732127)" fill="rgb(198,23,23)" stroke="none" stroke-width="1"/></g><g id="e5y2jk2x8yne3" transform="matrix(0.75294100000000 0 0 0.75294100000000 56.08660000000000 38.47520000000000)"><g id="e5y2jk2x8yne4"><g id="e5y2jk2x8yne5"/></g></g><g id="e5y2jk2x8yne6_tr" transform="translate(252.227196,234.977806) rotate(2880)"><g id="e5y2jk2x8yne6" transform="translate(-252.227196,-234.977806)"><g id="e5y2jk2x8yne7_to" transform="translate(383.294732,312.694241)"><g id="e5y2jk2x8yne7_tr" transform="rotate(0)"><g id="e5y2jk2x8yne7_tk" transform="skewX(0) skewY(0)"><g id="e5y2jk2x8yne7" transform="scale(0.171355,0.188209) translate(-255.999550,-255.999741)"><path id="e5y2jk2x8yne8" d="M511.004000,312.040000L340.756000,113.400000C339.992000,112.510000,338.876000,112,337.700000,112L278.026000,112C277.423000,112,276.850000,112.120000,276.327000,112.350000L276.317000,112.350000C275.684000,112.610000,275.141000,113.030000,274.699000,113.550000C274.689000,113.560000,274.679000,113.570000,274.669000,113.580000L116.251000,298.390000L101.164000,316.010000C145.540000,367.780000,202.662000,395.620000,260.738000,399.520000C263.894000,399.740000,267.060000,399.880000,270.227000,399.940000L270.287000,399.940000C275.654000,400.070000,281.022000,399.980000,286.379000,399.690000C402.541000,397.070000,459.250000,377.050000,510.874000,317.660000C510.884000,317.650000,510.884000,317.650000,510.894000,317.640000C510.944000,317.580000,510.994000,317.510000,511.045000,317.450000C511.146000,317.330000,511.236000,317.210000,511.316000,317.080000C511.326000,317.080000,511.326000,317.070000,511.326000,317.070000C511.748000,316.420000,511.999000,315.620000,511.999000,314.770000C511.999000,313.730000,511.627000,312.780000,511.004000,312.040000Z" fill="rgb(216,61,73)" stroke="none" stroke-width="4.176320"/><path id="e5y2jk2x8yne9" d="M511.999000,314.770000C511.999000,315.620000,511.748000,316.420000,511.326000,317.070000C511.326000,317.070000,511.326000,317.080000,511.316000,317.080000C511.235000,317.210000,511.145000,317.330000,511.045000,317.450000C510.995000,317.520000,510.935000,317.590000,510.874000,317.660000C487.063000,345.060000,462.166000,364.070000,430.856000,376.870000C450.597000,364.740000,467.965000,349.110000,484.871000,329.180000C484.871000,329.180000,484.871000,329.180000,484.871000,329.170000L472.528000,314.770000L442.344000,279.550000L298.762000,112L337.701000,112C338.877000,112,339.993000,112.510000,340.757000,113.400000L483.153000,279.550000L511.005000,312.040000C511.627000,312.780000,511.999000,313.730000,511.999000,314.770000Z" fill="rgb(193,54,71)" stroke="none" stroke-width="4.176320"/><path id="e5y2jk2x8yne10" d="M449.812000,314.770000C449.460000,315.190000,449.108000,315.600000,448.757000,316.020000C446.878000,318.200000,444.988000,320.340000,443.078000,322.430000C443.028000,322.490000,442.977000,322.550000,442.917000,322.600000C404.019000,365.140000,356.165000,390.140000,306.733000,397.610000C299.969000,398.630000,293.184000,399.330000,286.379000,399.690000C281.022000,399.980000,275.654000,400.070000,270.287000,399.940000L270.227000,399.940000C267.061000,399.880000,263.895000,399.740000,260.738000,399.520000C202.662000,395.620000,145.541000,367.780000,101.164000,316.010000L121.327000,292.490000L131.348000,280.790000L274.669000,113.580000C274.679000,113.570000,274.689000,113.560000,274.699000,113.550000C275.141000,113.030000,275.684000,112.610000,276.317000,112.350000L281.684000,118.620000L419.617000,279.550000L430.010000,291.670000Z" fill="rgb(109,148,48)" stroke="none" stroke-width="4.176320"/><path id="e5y2jk2x8yne11" d="M511.999000,314.770000C511.999000,315.620000,511.748000,316.420000,511.326000,317.070000C511.326000,317.070000,511.326000,317.080000,511.316000,317.080000C511.235000,317.210000,511.145000,317.330000,511.045000,317.450000C510.995000,317.520000,510.935000,317.590000,510.874000,317.660000C459.251000,377.060000,402.552000,397.060000,286.379000,399.690000C293.184000,399.330000,299.968000,398.630000,306.733000,397.610000C356.165000,390.140000,404.019000,365.140000,442.917000,322.600000C442.977000,322.550000,443.028000,322.490000,443.078000,322.430000C445.028000,320.350000,446.927000,318.210000,448.757000,316.020000C449.109000,315.600000,449.461000,315.190000,449.812000,314.770000Z" fill="rgb(124,168,54)" stroke="none" stroke-width="4.176320"/><path id="e5y2jk2x8yne12" d="M511.999000,314.770000L449.812000,314.770000L419.618000,279.550000L483.152000,279.550000L511.004000,312.040000C511.627000,312.780000,511.999000,313.730000,511.999000,314.770000Z" fill="rgb(250,216,124)" stroke="none" stroke-width="4.176320"/><path id="e5y2jk2x8yne13" d="M511.999000,314.770000L472.528000,314.770000L442.344000,279.550000L483.152000,279.550000L511.004000,312.040000C511.627000,312.780000,511.999000,313.730000,511.999000,314.770000Z" fill="rgb(254,190,64)" stroke="none" stroke-width="4.176320"/><path id="e5y2jk2x8yne14" d="M419.618000,279.550000C419.276000,279.970000,418.925000,280.380000,418.563000,280.800000C339.249000,373.340000,210.663000,373.330000,131.349000,280.790000L274.669000,113.580000C274.679000,113.570000,274.689000,113.560000,274.699000,113.550000C275.141000,113.030000,275.684000,112.610000,276.317000,112.350000L281.684000,118.620000Z" fill="rgb(193,54,71)" stroke="none" stroke-width="4.176320"/><path id="e5y2jk2x8yne15" d="M408.632000,312.120000C408.612000,312.090000,408.592000,312.070000,408.572000,312.040000C408.471000,311.920000,408.371000,311.800000,408.260000,311.690000L238.314000,113.400000C237.550000,112.510000,236.434000,112,235.258000,112L175.574000,112C174.971000,112,174.398000,112.120000,173.875000,112.350000C173.242000,112.610000,172.689000,113.030000,172.247000,113.550000C172.237000,113.560000,172.227000,113.570000,172.217000,113.580000C172.207000,113.590000,172.197000,113.600000,172.197000,113.610000L28.906000,280.790000L18.885000,292.490000L0.964000,313.390000C-0.323000,314.900000,-0.323000,317.130000,0.984000,318.610000C45.029000,368.710000,101.205000,395.690000,158.296000,399.520000C161.462000,399.740000,164.628000,399.880000,167.784000,399.940000L167.854000,399.940000C173.211000,400.070000,178.589000,399.980000,183.946000,399.690000C300.068000,397.070000,356.777000,377.070000,408.380000,317.720000C408.400000,317.700000,408.420000,317.680000,408.440000,317.660000C408.460000,317.630000,408.490000,317.590000,408.521000,317.560000C408.541000,317.540000,408.561000,317.510000,408.571000,317.490000C408.591000,317.480000,408.601000,317.460000,408.611000,317.450000C408.711000,317.330000,408.802000,317.210000,408.882000,317.080000C408.892000,317.080000,408.892000,317.070000,408.892000,317.070000C409.314000,316.420000,409.565000,315.620000,409.565000,314.770000C409.567000,313.770000,409.225000,312.850000,408.632000,312.120000Z" fill="rgb(216,61,73)" stroke="none" stroke-width="4.176320"/><path id="e5y2jk2x8yne16" d="M347.370000,314.770000C347.370000,314.780000,347.370000,314.780000,347.370000,314.780000C345.148000,317.400000,342.917000,319.950000,340.635000,322.430000C340.595000,322.490000,340.535000,322.550000,340.474000,322.600000C301.586000,365.140000,253.732000,390.140000,204.290000,397.610000C197.526000,398.630000,190.741000,399.330000,183.946000,399.690000C178.589000,399.980000,173.211000,400.070000,167.854000,399.940000L167.784000,399.940000C164.628000,399.880000,161.462000,399.740000,158.296000,399.520000C101.205000,395.690000,45.029000,368.710000,0.984000,318.610000C-0.323000,317.130000,-0.323000,314.900000,0.964000,313.390000L18.885000,292.490000L28.906000,280.790000L172.197000,113.610000C172.197000,113.600000,172.207000,113.590000,172.217000,113.580000C172.227000,113.570000,172.237000,113.560000,172.247000,113.550000C172.689000,113.030000,173.242000,112.610000,173.875000,112.350000L179.242000,118.610000L317.185000,279.550000L327.568000,291.670000Z" fill="rgb(250,216,124)" stroke="none" stroke-width="4.176320"/><path id="e5y2jk2x8yne17" d="M317.186000,279.550000C316.834000,279.970000,316.482000,280.380000,316.131000,280.800000C236.816000,373.340000,108.231000,373.330000,28.906000,280.790000L172.197000,113.610000C172.197000,113.600000,172.207000,113.590000,172.217000,113.580000C172.227000,113.570000,172.237000,113.560000,172.247000,113.550000C172.689000,113.030000,173.242000,112.610000,173.875000,112.350000L179.242000,118.610000Z" fill="rgb(240,67,72)" stroke="none" stroke-width="4.176320"/><path id="e5y2jk2x8yne18" d="M347.371000,314.775000C347.371000,314.778000,347.371000,314.780000,347.371000,314.780000C345.152000,317.400000,342.913000,319.945000,340.639000,322.433000C340.591000,322.490000,340.535000,322.548000,340.478000,322.605000C301.584000,365.135000,253.730000,390.139000,204.292000,397.609000C197.528000,398.632000,190.740000,399.327000,183.944000,399.687000C178.588000,399.981000,173.215000,400.072000,167.851000,399.941000L167.787000,399.941000C164.626000,399.875000,161.458000,399.736000,158.297000,399.516000C101.202000,395.687000,45.032000,368.712000,0.983000,318.614000C-0.325000,317.126000,-0.324000,314.899000,0.965000,313.395000L18.886000,292.488000C25.779000,300.817000,24.484000,319.775000,32.116000,326.664000C39.974000,333.766000,55.504000,327.417000,63.909000,333.128000C72.474000,338.954000,75.426000,357.838000,84.434000,362.223000C91.270000,365.545000,100.608000,360.268000,108.827000,358.672000C111.578000,358.132000,114.208000,358.001000,116.572000,358.746000C122.371000,360.563000,127.261000,367.697000,132.392000,373.335000C135.698000,376.960000,139.092000,379.963000,142.896000,380.543000C144.119000,380.731000,145.349000,380.666000,146.596000,380.404000C155.306000,378.604000,164.547000,367.411000,173.145000,367.395000C182.965000,367.370000,193.678000,381.959000,203.434000,380.429000C213.149000,378.907000,220.187000,361.545000,229.693000,358.526000C239.135000,355.532000,252.743000,366.356000,261.848000,361.881000C270.840000,357.463000,273.743000,338.562000,282.284000,332.712000C290.680000,326.960000,306.219000,333.260000,314.069000,326.126000C321.710000,319.163000,320.310000,300.033000,327.315000,291.753000C327.315000,291.753000,327.403000,291.729000,327.572000,291.671000Z" fill="rgb(200,218,82)" stroke="none" stroke-width="4.176320"/><path id="e5y2jk2x8yne19" d="M409.567000,314.770000C409.567000,315.620000,409.316000,316.420000,408.894000,317.070000C408.894000,317.070000,408.894000,317.080000,408.884000,317.080000C408.804000,317.210000,408.713000,317.330000,408.613000,317.450000C408.603000,317.460000,408.593000,317.480000,408.573000,317.490000C408.543000,317.540000,408.503000,317.590000,408.462000,317.640000C408.452000,317.650000,408.452000,317.650000,408.442000,317.660000C408.422000,317.680000,408.402000,317.700000,408.382000,317.720000C356.779000,377.070000,300.070000,397.060000,183.948000,399.690000C190.743000,399.330000,197.527000,398.630000,204.292000,397.610000C253.734000,390.140000,301.588000,365.140000,340.476000,322.600000C340.536000,322.550000,340.597000,322.490000,340.637000,322.430000C342.597000,320.350000,344.497000,318.210000,346.316000,316.020000C346.678000,315.600000,347.030000,315.190000,347.371000,314.770000Z" fill="rgb(124,168,54)" stroke="none" stroke-width="4.176320"/><path id="e5y2jk2x8yne20" d="M409.567000,314.770000L347.370000,314.770000L317.186000,279.550000L380.720000,279.550000L408.260000,311.690000C408.371000,311.800000,408.471000,311.920000,408.572000,312.040000C408.592000,312.070000,408.612000,312.090000,408.632000,312.120000C409.225000,312.850000,409.567000,313.770000,409.567000,314.770000Z" fill="rgb(250,216,124)" stroke="none" stroke-width="4.176320"/><g id="e5y2jk2x8yne21"><circle id="e5y2jk2x8yne22" r="7.500000" transform="matrix(1 0 0 1 193.90899999999999 250.44999999999999)" fill="rgb(73,59,79)" stroke="none" stroke-width="4.176320"/><circle id="e5y2jk2x8yne23" r="7.500000" transform="matrix(1 0 0 1 159.10900000000001 300.50999999999999)" fill="rgb(73,59,79)" stroke="none" stroke-width="4.176320"/><circle id="e5y2jk2x8yne24" r="7.500000" transform="matrix(1 0 0 1 250.59899999999999 242.94999999999999)" fill="rgb(73,59,79)" stroke="none" stroke-width="4.176320"/><circle id="e5y2jk2x8yne25" r="7.500000" transform="matrix(1 0 0 1 102.60899999999999 267.92000000000002)" fill="rgb(73,59,79)" stroke="none" stroke-width="4.176320"/><circle id="e5y2jk2x8yne26" r="7.500000" transform="matrix(1 0 0 1 178.90899999999999 208.72999999999999)" fill="rgb(73,59,79)" stroke="none" stroke-width="4.176320"/><circle id="e5y2jk2x8yne27" r="7.500000" transform="matrix(1 0 0 1 233.37899999999999 285.50000000000000)" fill="rgb(73,59,79)" stroke="none" stroke-width="4.176320"/><circle id="e5y2jk2x8yne28" r="7.500000" transform="matrix(1 0 0 1 132.43899999999999 225.31999999999999)" fill="rgb(73,59,79)" stroke="none" stroke-width="4.176320"/><circle id="e5y2jk2x8yne29" r="7.500000" transform="matrix(1 0 0 1 172.69900000000001 159.84000000000000)" fill="rgb(73,59,79)" stroke="none" stroke-width="4.176320"/></g></g></g></g></g><g id="e5y2jk2x8yne30_to" transform="translate(30.734400,204.338000)"><g id="e5y2jk2x8yne30_tr" transform="rotate(0)"><g id="e5y2jk2x8yne30" transform="scale(0.093363,0.104393) translate(-254.643997,-254.643997)"><circle id="e5y2jk2x8yne31" r="254.644000" transform="matrix(1 0 0 1 254.64400000000001 254.64400000000001)" fill="rgb(185,129,37)" stroke="none" stroke-width="7.596920"/><circle id="e5y2jk2x8yne32" r="242.776000" transform="matrix(1 0 0 1 254.64400000000001 254.64400000000001)" fill="rgb(241,218,128)" stroke="none" stroke-width="7.596920"/><circle id="e5y2jk2x8yne33" r="234.638000" transform="matrix(1 0 0 1 254.64400000000001 254.64400000000001)" fill="rgb(170,198,6)" stroke="none" stroke-width="7.596920"/><path id="e5y2jk2x8yne34" d="M388.577000,292.959000C405.192000,291.942000,415.703000,288.212000,416.720000,282.448000C417.737000,276.345000,408.243000,269.224000,391.968000,262.443000C415.364000,256.340000,430.283000,248.541000,429.944000,241.081000C429.266000,232.265000,408.243000,226.501000,378.066000,224.805000C390.612000,216.328000,397.732000,208.869000,395.698000,203.782000C394.342000,199.713000,386.882000,198.018000,375.354000,198.357000C391.630000,183.099000,400.106000,170.553000,396.376000,164.450000C391.968000,157.329000,371.624000,161.737000,345.176000,173.944000C351.957000,161.059000,354.331000,151.565000,350.601000,148.174000C347.210000,145.122000,338.733000,147.835000,327.883000,154.616000C342.463000,115.284000,346.532000,84.428000,336.699000,79.681000C328.222000,75.612000,310.929000,92.227000,292.959000,120.370000C291.942000,103.755000,288.212000,93.244000,282.448000,92.227000C276.345000,91.210000,269.224000,100.704000,262.443000,116.979000C256.340000,93.583000,248.541000,78.664000,241.081000,79.003000C232.265000,79.681000,226.501000,100.704000,224.806000,130.881000C216.329000,118.335000,208.870000,111.215000,203.783000,113.249000C199.714000,114.605000,198.019000,122.065000,198.358000,133.593000C183.100000,117.318000,170.554000,108.841000,164.451000,112.910000C157.330000,117.318000,161.738000,137.662000,173.945000,164.110000C161.060000,157.329000,151.566000,154.955000,148.175000,158.685000C145.123000,162.076000,147.836000,170.553000,154.617000,181.403000C115.285000,166.823000,84.429000,162.754000,79.682000,172.587000C75.613000,181.064000,92.228000,198.357000,120.371000,216.327000C103.756000,217.344000,93.245000,221.074000,92.228000,226.838000C91.211000,232.941000,100.705000,240.062000,116.980000,246.843000C93.584000,252.946000,78.665000,260.745000,79.004000,268.205000C79.682000,277.021000,100.705000,282.785000,130.882000,284.481000C118.336000,292.958000,111.216000,300.417000,113.250000,305.504000C114.606000,309.573000,122.066000,311.268000,133.594000,310.929000C117.319000,326.187000,108.842000,338.733000,112.571000,344.836000C116.979000,351.957000,137.323000,347.549000,163.771000,335.342000C156.990000,348.227000,154.616000,357.721000,158.346000,361.112000C161.737000,364.164000,170.214000,361.451000,181.064000,354.670000C166.484000,394.002000,162.415000,424.858000,172.248000,429.605000C180.725000,433.674000,198.018000,417.059000,215.988000,388.916000C217.005000,405.531000,220.735000,416.042000,226.499000,417.059000C232.602000,418.076000,239.723000,408.582000,246.504000,392.307000C252.607000,415.703000,260.406000,430.622000,267.866000,430.283000C276.682000,429.605000,282.446000,408.582000,284.142000,378.405000C292.619000,390.951000,300.078000,398.071000,305.164000,396.037000C309.233000,394.681000,310.928000,387.221000,310.589000,375.693000C325.847000,391.968000,338.393000,400.445000,344.496000,396.715000C351.617000,392.307000,347.209000,371.963000,335.002000,345.515000C347.887000,352.296000,357.381000,354.670000,360.772000,350.940000C363.824000,347.549000,361.111000,339.072000,354.330000,328.222000C393.662000,342.802000,424.518000,346.871000,429.265000,337.038000C433.335000,328.223000,416.381000,310.930000,388.577000,292.959000Z" fill="rgb(158,189,9)" stroke="none" stroke-width="7.596920"/><circle id="e5y2jk2x8yne35" r="71.544000" transform="matrix(1 0 0 1 254.64400000000001 254.64400000000001)" fill="rgb(213,220,81)" stroke="none" stroke-width="7.596920"/><circle id="e5y2jk2x8yne36" r="47.131000" transform="matrix(1 0 0 1 254.64400000000001 254.64400000000001)" fill="rgb(252,254,163)" stroke="none" stroke-width="7.596920"/><g id="e5y2jk2x8yne37"><path id="e5y2jk2x8yne38" d="M264.816000,364.164000C264.816000,367.555000,262.103000,369.928000,259.052000,369.928000C255.661000,369.928000,253.288000,367.215000,253.288000,364.164000C253.288000,360.773000,259.052000,354.331000,259.052000,354.331000C259.052000,354.331000,264.816000,361.113000,264.816000,364.164000Z" fill="rgb(57,61,71)" stroke="none" stroke-width="7.596920"/><path id="e5y2jk2x8yne39" d="M173.266000,313.981000C170.214000,315.337000,166.824000,313.981000,165.467000,310.929000C164.111000,307.877000,165.467000,304.487000,168.519000,303.130000C171.571000,301.774000,180.047000,304.486000,180.047000,304.486000C180.047000,304.486000,176.318000,312.964000,173.266000,313.981000Z" fill="rgb(57,61,71)" stroke="none" stroke-width="7.596920"/><path id="e5y2jk2x8yne40" d="M317.711000,326.527000C319.745000,328.901000,323.814000,329.240000,326.188000,326.866000C328.561000,324.492000,328.901000,320.763000,326.527000,318.389000C324.153000,316.015000,315.338000,314.998000,315.338000,314.998000C315.338000,314.998000,315.338000,324.154000,317.711000,326.527000Z" fill="rgb(57,61,71)" stroke="none" stroke-width="7.596920"/><path id="e5y2jk2x8yne41" d="M357.383000,249.558000C360.435000,248.880000,362.469000,245.489000,361.452000,242.437000C360.774000,239.385000,357.383000,237.351000,354.331000,238.368000C351.279000,239.046000,346.193000,246.506000,346.193000,246.506000C346.193000,246.506000,353.992000,250.236000,357.383000,249.558000Z" fill="rgb(57,61,71)" stroke="none" stroke-width="7.596920"/><path id="e5y2jk2x8yne42" d="M286.856000,146.479000C287.873000,143.427000,286.178000,140.037000,283.126000,139.019000C280.074000,138.001000,276.684000,139.697000,275.666000,142.749000C274.649000,145.801000,278.040000,153.938000,278.040000,153.938000C278.040000,153.938000,285.838000,149.531000,286.856000,146.479000Z" fill="rgb(57,61,71)" stroke="none" stroke-width="7.596920"/><path id="e5y2jk2x8yne43" d="M210.903000,163.772000C208.869000,161.059000,205.139000,160.720000,202.426000,162.755000C199.713000,164.789000,199.035000,168.519000,200.731000,171.232000C202.765000,173.945000,211.581000,175.640000,211.581000,175.640000C211.581000,175.640000,212.938000,166.485000,210.903000,163.772000Z" fill="rgb(57,61,71)" stroke="none" stroke-width="7.596920"/><path id="e5y2jk2x8yne44" d="M171.232000,225.144000C168.180000,224.805000,165.129000,227.178000,164.790000,230.569000C164.451000,233.960000,166.485000,237.011000,169.876000,237.350000C172.928000,237.689000,180.387000,232.264000,180.387000,232.264000C180.387000,232.264000,174.283000,225.483000,171.232000,225.144000Z" fill="rgb(57,61,71)" stroke="none" stroke-width="7.596920"/><path id="e5y2jk2x8yne45" d="M344.837000,192.932000C347.211000,190.558000,347.211000,186.829000,344.837000,184.455000C342.463000,182.081000,338.734000,181.742000,336.360000,183.777000C333.986000,186.151000,333.308000,194.966000,333.308000,194.966000C333.308000,194.966000,342.464000,194.967000,344.837000,192.932000Z" fill="rgb(57,61,71)" stroke="none" stroke-width="7.596920"/></g></g></g></g><g id="e5y2jk2x8yne46_to" transform="translate(381.464000,22.127100)"><g id="e5y2jk2x8yne46_tr" transform="rotate(0)"><g id="e5y2jk2x8yne46_ts" transform="scale(0.118887,0.130940)"><g id="e5y2jk2x8yne46" transform="translate(-256.001278,-253.995657)"><path id="e5y2jk2x8yne47" d="M233.654000,171.080000C233.654000,171.080000,243.043000,188.893000,245.531000,195.103000C261.010000,233.903000,296.255000,251.203000,334.280000,241.319000L342.192000,239.266000C345.939449,238.336801,348.736318,235.208672,349.242000,231.381000C349.229000,230.572000,349.211000,229.721000,349.180000,228.864000C349.140000,228.623000,349.087000,228.375000,349.025000,228.131000L347.025000,220.531000C337.451000,184.031000,300.250000,163.720000,261.401000,169.226000C254.510000,170.200000,233.654000,171.080000,233.654000,171.080000Z" transform="matrix(1 0 0 1 283.98213778630043 193.69144829692979)" fill="rgb(93,132,48)" stroke="none" stroke-width="6.011150"/><path id="e5y2jk2x8yne48" d="M332.811000,218.924000L340.178000,215.383000C341.788130,214.607318,343.150371,213.398476,344.112000,211.892000C345.277233,214.702108,346.251447,217.587667,347.028000,220.529000L349.028000,228.129000C349.090000,228.373000,349.143000,228.621000,349.183000,228.862000C349.214000,229.719000,349.232000,230.570000,349.245000,231.379000C348.739318,235.206672,345.942449,238.334801,342.195000,239.264000L334.283000,241.317000C301.183000,249.917000,270.198000,237.917000,252.515000,209.078000C274.917000,228.792000,304.655000,232.472000,332.811000,218.924000Z" transform="matrix(1 0 0 1 283.98213778630043 193.69144829692979)" fill="rgb(89,117,44)" stroke="none" stroke-width="6.011150"/><path id="e5y2jk2x8yne49" d="M342.645000,142.926000C342.110000,95.056000,351.858000,53.367000,371.627000,18.906000C373.270461,16.040687,372.969868,12.457457,370.872000,9.906000C368.645155,7.199745,364.914219,6.261334,361.672000,7.592000C310.116000,28.638000,259.620000,64.742000,218.922000,109.755000C171.922000,161.735000,141.588000,221.493000,131.183000,282.582000C130.586452,285.856741,132.700590,289.012666,135.956000,289.707000C137.537888,290.005769,139.173454,289.655329,140.494064,288.734665C141.814673,287.814000,142.709190,286.400591,142.976000,284.813000C152.962000,225.900000,182.300000,168.150000,227.823000,117.800000C258.642000,83.716000,295.200000,54.914000,333.486000,34.220000C305.856000,63.573000,283.753000,102.752000,268.621000,149.675000C249.769000,208.132000,242.353000,275.235000,247.175000,343.731000C247.395379,346.871580,250.005699,349.307704,253.154000,349.311000C253.295000,349.311000,253.438000,349.305000,253.582000,349.295000C256.887368,349.062375,259.378392,346.194384,259.146000,342.889000C254.498000,276.865000,261.919000,209.555000,280.046000,153.358000C296.165000,103.373000,320.346000,62.638000,350.720000,33.903000C336.936000,65.711000,330.194000,102.293000,330.650000,143.060000C331.174000,190.060000,341.659000,242.338000,360.970000,294.252000C361.566942,295.857992,362.821990,297.132174,364.418768,297.753345C366.015546,298.374515,367.801710,298.283412,369.327000,297.503000C372.060186,296.031736,373.267009,292.753192,372.140000,289.861000C353.350000,239.300000,343.153000,188.493000,342.645000,142.926000Z" transform="matrix(1 0 0 1 283.98213778630043 193.69144829692979)" fill="rgb(43,42,62)" stroke="none" stroke-width="6.011150"/><path id="e5y2jk2x8yne50" d="M142.243000,258.062000C140.153980,264.417606,133.317499,267.885931,126.955000,265.818000L116.689000,262.690000C67.389000,247.705000,39.946000,204.266000,49.370000,150.368000C50.881000,141.723000,52.656000,115.409000,52.656000,115.409000C52.656000,115.409000,76.576000,128.709000,84.956000,132.332000C131.474000,152.486000,158.930000,199.537000,145.856000,246.177000C145.843000,246.216000,145.835000,246.246000,145.827000,246.277000C145.540000,247.212000,145.259000,248.139000,145.003000,249.046000Z" transform="matrix(1 0 0 1 283.98213778630043 193.69144829692979)" fill="rgb(107,147,55)" stroke="none" stroke-width="6.011150"/><path id="e5y2jk2x8yne51" d="M142.243000,258.062000L145,249.046000C145.256000,248.139000,145.537000,247.212000,145.824000,246.277000C145.832000,246.246000,145.840000,246.216000,145.853000,246.177000C147.785098,239.298323,148.863533,232.208059,149.064000,225.066000L139.394000,224.381000C92.511000,221.088000,58.086000,190.654000,50.242000,143.867000C49.952000,146.467000,49.656000,148.734000,49.371000,150.367000C39.947000,204.267000,67.392000,247.704000,116.690000,262.689000L126.956000,265.817000C133.317903,267.884368,140.153552,264.416685,142.243000,258.062000Z" transform="matrix(1 0 0 1 283.98213778630043 193.69144829692979)" fill="rgb(89,117,44)" stroke="none" stroke-width="6.011150"/><path id="e5y2jk2x8yne52" d="M435.137000,158.650000C435.137000,158.650000,435.112000,178.786000,435.799000,185.441000C440.144000,226.986000,416.992000,258.696000,378.734000,267.634000L370.775000,269.498000C367.025468,270.418617,363.094523,268.950810,360.866000,265.798000C360.501000,265.075000,360.121000,264.314000,359.750000,263.541000C359.673000,263.308000,359.605000,263.064000,359.550000,262.820000L357.782000,255.162000C349.276000,218.394000,372.761000,183.113000,409.714000,169.916000C416.264000,167.570000,435.137000,158.650000,435.137000,158.650000Z" transform="matrix(1 0 0 1 283.98213778630043 193.69144829692979)" fill="rgb(93,132,48)" stroke="none" stroke-width="6.011150"/><path id="e5y2jk2x8yne53" d="M369.617000,247.127000L361.448000,247.420000C359.661767,247.481652,357.893575,247.045403,356.341000,246.160000C356.617319,249.188870,357.097406,252.195680,357.778000,255.160000L359.546000,262.818000C359.605000,263.062000,359.673000,263.306000,359.746000,263.539000C360.117000,264.312000,360.497000,265.073000,360.862000,265.796000C363.090523,268.948810,367.021468,270.416617,370.771000,269.496000L378.730000,267.632000C412.030000,259.852000,433.878000,234.814000,436.116000,201.058000C425.456000,228.932000,400.842000,246.023000,369.617000,247.127000Z" transform="matrix(1 0 0 1 283.98213778630043 193.69144829692979)" fill="rgb(89,117,44)" stroke="none" stroke-width="6.011150"/><path id="e5y2jk2x8yne54" d="M476.530000,320.590000C491.460000,365.150000,469.100000,424.930000,418.800000,441.030000C388.460000,450.730000,361.200000,446.180000,339.870000,433.390000C342.906978,424.278891,344.479846,414.743803,344.530000,405.140000C344.530000,367.010000,331.280000,334.690000,295.260000,334.690000C294.050000,334.690000,292.780000,334.760000,291.480000,334.890000C293.900000,317.550000,303.860000,303.650000,325.320000,296.460000C335.570000,293.030000,355.310000,294.840000,366.590000,292.160000Q367.715000,291.890000,368.720000,291.560000C379.640000,287.940000,394.830000,273.670000,407.430000,269.450000C441.580000,258.010000,464.410000,284.440000,476.530000,320.590000Z" transform="matrix(1 0 0 1 283.98213778630043 193.69144829692979)" fill="rgb(190,30,45)" stroke="none" stroke-width="6.011150"/><path id="e5y2jk2x8yne55" d="M348.710000,363.270000C336.022000,339.054000,334.072000,315.270000,339.410000,294.332000C334.034000,294.661000,329.044000,295.212000,325.316000,296.460000C303.856000,303.650000,293.896000,317.550000,291.476000,334.890000C292.776000,334.760000,294.046000,334.690000,295.256000,334.690000C331.276000,334.690000,344.526000,367.010000,344.526000,405.140000C344.475846,414.743803,342.902978,424.278891,339.866000,433.390000C361.196000,446.180000,388.456000,450.730000,418.796000,441.030000C438.777000,434.635000,454.343000,421.343000,464.921000,404.854000C424.341000,419.200000,370.900000,405.577000,348.710000,363.270000Z" transform="matrix(1 0 0 1 283.98213778630043 193.69144829692979)" fill="rgb(163,29,45)" stroke="none" stroke-width="6.011150"/><path id="e5y2jk2x8yne56" d="M180.530000,281.830000C208.630000,286.210000,219.610000,308.300000,220.100000,335.960000C216.423097,334.946895,212.641239,334.363006,208.830000,334.220000C168.400000,334.220000,155.990000,366.160000,155.990000,405.140000C155.993598,414.641991,157.357432,424.094537,160.040000,433.210000C144.900341,439.982388,128.100414,442.142378,111.740000,439.420000C50.830000,429.080000,24.860000,376.450000,32.090000,330.010000C38.090000,291.490000,55.260000,261.840000,95.210000,268.060000C106.600000,269.830000,124.830000,281.890000,135.990000,283.660000C136.340000,283.720000,136.690000,283.760000,137.060000,283.810000C148.580000,285.140000,167.810000,279.850000,180.530000,281.830000Z" transform="matrix(1 0 0 1 283.98213778630043 193.69144829692979)" fill="rgb(190,30,45)" stroke="none" stroke-width="6.011150"/><path id="e5y2jk2x8yne57" d="M89.339000,319.390000C92.291000,300.440000,97.955000,283.648000,107.697000,272.206000C103.716281,270.327521,99.523737,268.935490,95.210000,268.060000C55.260000,261.840000,38.090000,291.490000,32.090000,330.010000C24.860000,376.450000,50.830000,429.080000,111.740000,439.420000C128.100414,442.142378,144.900341,439.982388,160.040000,433.210000Q159.056000,429.865000,158.312000,426.465000C105.059000,412.107000,82.547000,363.018000,89.339000,319.390000Z" transform="matrix(1 0 0 1 283.98213778630043 193.69144829692979)" fill="rgb(153,31,51)" stroke="none" stroke-width="6.011150"/><path id="e5y2jk2x8yne58" d="M291.480000,334.890000C292.780000,334.760000,294.050000,334.690000,295.260000,334.690000C331.280000,334.690000,344.530000,367.010000,344.530000,405.140000C344.479846,414.743803,342.906978,424.278891,339.870000,433.390000C327.840000,470.050000,293.710000,501.570000,251.530000,500.990000C202.180000,500.320000,170.700000,469.530000,160.040000,433.210000C157.357432,424.094537,155.993598,414.641991,155.990000,405.140000C155.990000,366.160000,168.400000,334.220000,208.830000,334.220000C212.641239,334.363006,216.423097,334.946895,220.100000,335.960000C230.810000,338.600000,243.390000,343.330000,251.530000,343.360000C252.060000,343.360000,252.600000,343.350000,253.160000,343.310000C263.650000,342.690000,279.220000,336.140000,291.480000,334.890000Z" transform="matrix(1 0 0 1 283.98213778630043 193.69144829692979)" fill="rgb(190,30,45)" stroke="none" stroke-width="6.011150"/><path id="e5y2jk2x8yne59" d="M331.522000,451.144000C289.070000,476.317000,246.150000,466.470000,218.109000,441.044000C211.064624,434.666681,204.969466,427.313765,200.009000,419.209000C180.709000,387.650000,174.263000,355.672000,203.131000,334.466000C167.238000,337.374000,155.989000,368.060000,155.989000,405.139000C155.992598,414.640991,157.356432,424.093537,160.039000,433.209000C170.699000,469.529000,202.179000,500.319000,251.529000,500.989000C286.906000,501.475000,316.612000,479.378000,332.375000,450.609000C332.088000,450.785000,331.812000,450.972000,331.522000,451.144000Z" transform="matrix(1 0 0 1 283.98213778630043 193.69144829692979)" fill="rgb(163,29,45)" stroke="none" stroke-width="6.011150"/><g id="e5y2jk2x8yne60" opacity="0.6"><path id="e5y2jk2x8yne61" d="M65.445000,378.550000C63.478155,378.551609,61.635412,377.589138,60.513000,375.974000C42.501000,350.061000,55.961000,331.774000,56.543000,331.010000C58.532984,328.359350,62.294892,327.823627,64.945705,329.813393C67.596518,331.803160,68.132549,335.565024,66.143000,338.216000C65.705000,338.832000,57.594000,350.743000,70.372000,369.125000C71.646676,370.958447,71.797722,373.348087,70.764048,375.327442C69.730373,377.306796,67.683008,378.548364,65.450000,378.550000Z" transform="matrix(1 0 0 1 283.98213778630043 193.69144829692979)" fill="rgb(233,233,233)" stroke="none" stroke-width="6.011150"/></g><g id="e5y2jk2x8yne62" opacity="0.6"><path id="e5y2jk2x8yne63" d="M187.615000,436.630000C185.648584,436.632938,183.805837,435.671017,182.684000,434.056000C164.659000,408.141000,178.132000,389.856000,178.714000,389.088000C180.704987,386.438966,184.466466,385.905513,187.115500,387.896500C189.764534,389.887487,190.297987,393.648966,188.307000,396.298000C187.869000,396.914000,179.751000,408.823000,192.536000,427.204000C193.811142,429.037323,193.962595,431.427136,192.929095,433.406767C191.895596,435.386398,189.848172,436.628251,187.615000,436.630000Z" transform="matrix(1 0 0 1 283.98213778630043 193.69144829692979)" fill="rgb(233,233,233)" stroke="none" stroke-width="6.011150"/></g></g></g></g></g><g id="e5y2jk2x8yne64_to" transform="translate(76.395700,23.864000)"><g id="e5y2jk2x8yne64_tr" transform="rotate(0)"><g id="e5y2jk2x8yne64_ts" transform="scale(0.143276,0.130065)"><g id="e5y2jk2x8yne64" transform="translate(-255.998943,-254.999973)"><path id="e5y2jk2x8yne65" d="M300.140000,104.280000C285.930000,131.490000,272.080000,158.210000,272.080000,175.130000C263.610000,181.950000,249.850000,182.300000,241.960000,177.090000C241.970698,175.263088,242.104333,173.438966,242.360000,171.630000L243.460000,165.820000C252.500000,127.360000,299.530000,60.890000,300.160000,26.130000C300.218370,17.794334,306.964298,11.052862,315.300000,11C319.271098,10.988935,323.077269,12.587166,325.850000,15.430000C328.640389,18.312189,330.270922,22.121512,330.430000,26.130000C331.280000,44.890000,315.510000,74.860000,300.150000,104.260000C300.140000,104.270000,300.140000,104.270000,300.140000,104.280000Z" transform="matrix(1 0 0 1 2.55087753706125 194.14293641640708)" fill="rgb(226,148,84)" stroke="none" stroke-width="5.494080"/><path id="e5y2jk2x8yne66" d="M254.448000,177.090000C254.458722,175.263089,254.592357,173.438969,254.848000,171.630000L255.948000,165.820000C264.989000,127.360000,312.019000,60.890000,312.648000,26.130000C312.723170,20.224558,316.170713,14.882866,321.521000,12.382000C319.574000,11.470029,317.449999,10.998181,315.300000,11C306.964298,11.052862,300.218370,17.794334,300.160000,26.130000C299.530000,60.890000,252.500000,127.360000,243.460000,165.820000L242.360000,171.630000C242.104333,173.438966,241.970698,175.263088,241.960000,177.090000C247.038000,180.443000,254.543000,181.478000,261.509000,179.983000C259.000657,179.450661,256.608770,178.470668,254.448000,177.090000Z" transform="matrix(1 0 0 1 2.55087753706125 194.14293641640708)" fill="rgb(191,122,71)" stroke="none" stroke-width="5.494080"/><path id="e5y2jk2x8yne67" d="M407.090000,79.860000C407.780422,81.093587,407.886684,82.570269,407.380000,83.890000L402.320000,97.080000C397.747619,109.020728,390.514541,119.762618,381.170000,128.490000C377.083172,126.821116,372.898811,125.401839,368.640000,124.240000C319.350000,110.730000,292.050000,155.150000,273.800000,173.590000C273.257924,174.137209,272.683562,174.651463,272.080000,175.130000C272.080000,158.210000,285.930000,131.490000,300.140000,104.280000C300.140000,104.270000,300.140000,104.270000,300.150000,104.260000C320.140000,74.210000,355.790000,66.650000,389.660000,74.240000L403.790000,77.400000C405.190565,77.711690,406.391300,78.606784,407.090000,79.860000Z" transform="matrix(1 0 0 1 2.55087753706125 194.14293641640708)" fill="rgb(141,198,63)" stroke="none" stroke-width="5.494080"/><path id="e5y2jk2x8yne68" d="M403.790000,77.400000L401.678000,76.928000C397.416000,82.203000,392.951000,87.573000,388.460000,92.966000C388.460000,92.975000,388.460000,92.975000,388.446000,92.983000C363.880000,116.833000,329.824000,117.909000,299.500000,105.505000C285.517000,132.290000,272.080000,158.464000,272.080000,175.130000C272.683562,174.651463,273.257924,174.137209,273.800000,173.590000C292.050000,155.150000,319.350000,110.730000,368.640000,124.240000C372.898811,125.401839,377.083172,126.821116,381.170000,128.490000C390.514541,119.762618,397.747619,109.020728,402.320000,97.080000L407.380000,83.890000C407.886684,82.570269,407.780422,81.093587,407.090000,79.860000C406.391300,78.606784,405.190565,77.711690,403.790000,77.400000Z" transform="matrix(1 0 0 1 2.55087753706125 194.14293641640708)" fill="rgb(115,153,55)" stroke="none" stroke-width="5.494080"/><path id="e5y2jk2x8yne69" d="M242.360000,171.630000C242.104333,173.438966,241.970698,175.263088,241.960000,177.090000C240.505894,176.159576,239.232058,174.973825,238.200000,173.590000C224.490000,154.800000,196.540000,116.110000,152.600000,122.310000C141.510000,102.430000,134.080000,71.880000,136.910000,47.820000L139.040000,29.620000C139.251999,27.806968,140.242846,26.176070,141.754231,25.152476C143.265616,24.128882,145.147762,23.814030,146.910000,24.290000L164.610000,29.040000C218.075607,43.412512,252.918734,94.813146,246.470000,149.800000L243.460000,165.820000Q242.740000,168.850000,242.360000,171.630000Z" transform="matrix(1 0 0 1 2.55087753706125 194.14293641640708)" fill="rgb(141,198,63)" stroke="none" stroke-width="5.494080"/><path id="e5y2jk2x8yne70" d="M169.157000,30.369000C172.612000,31.841000,176.209000,33.200000,179.918000,34.369000C176.401836,32.852341,172.810106,31.517250,169.157000,30.369000Z" transform="matrix(1 0 0 1 2.55087753706125 194.14293641640708)" fill="rgb(110,137,26)" stroke="none" stroke-width="5.494080"/><path id="e5y2jk2x8yne71" d="M140.700000,39.354000L138.938000,30.500000L136.910000,47.820000C134.080000,71.880000,141.510000,102.430000,152.600000,122.310000C196.540000,116.110000,224.490000,154.800000,238.200000,173.590000C239.232058,174.973825,240.505894,176.159576,241.960000,177.090000C241.970698,175.263088,242.104333,173.438966,242.360000,171.630000Q242.735000,168.855000,243.460000,165.820000L246.470000,149.800000C247.572380,140.433184,247.483338,130.964428,246.205000,121.620000C196.675905,120.653833,153.711750,87.153153,140.700000,39.354000Z" transform="matrix(1 0 0 1 2.55087753706125 194.14293641640708)" fill="rgb(115,153,55)" stroke="none" stroke-width="5.494080"/><path id="e5y2jk2x8yne72" d="M187.435000,94.510000C185.493403,94.513108,183.670736,93.574938,182.545000,91.993000L137.224000,28.423000C135.979328,26.676696,135.760936,24.398988,136.651104,22.447991C137.541271,20.496994,139.404737,19.169160,141.539450,18.964744C143.674164,18.760328,145.755757,19.710390,147,21.457000L192.321000,85.027000C193.624645,86.855606,193.797994,89.259129,192.770245,91.255882C191.742495,93.252634,189.685726,94.508293,187.440000,94.510000Z" transform="matrix(1 0 0 1 2.55087753706125 194.14293641640708)" fill="rgb(110,137,26)" stroke="none" stroke-width="5.494080"/><path id="e5y2jk2x8yne73" d="M381.170000,126.490000C440.860000,150.840000,463.010000,222.140000,463.010000,275.280000C463.010000,369.920000,370.090000,499,310.380000,499C295.580000,499,281.610000,490.850000,271.480000,484.720000C262.600000,479.350000,246.160000,481.260000,240.520000,484.720000C230.430000,490.910000,216.030000,499,201.620000,499C130.270000,499,49.560000,371.380000,48.990000,275.280000C48.720000,229,74.210000,141.190000,143.360000,122.240000C146.396215,121.402444,149.482380,120.757823,152.600000,120.310000C196.540000,114.110000,224.490000,152.800000,238.200000,171.590000C239.232058,172.973825,240.505894,174.159576,241.960000,175.090000C249.850000,180.300000,263.610000,179.950000,272.080000,173.130000C272.683562,172.651463,273.257924,172.137209,273.800000,171.590000C292.050000,153.150000,319.350000,108.730000,368.640000,122.240000C372.898811,123.401839,377.083172,124.821116,381.170000,126.490000Z" transform="matrix(1 0 0 1 2.55087753706125 194.14293641640708)" fill="rgb(252,50,75)" stroke="none" stroke-width="5.494080"/><path id="e5y2jk2x8yne74" d="M144.324000,319.052000C120.441000,275.721000,99.551000,180.230000,154.824000,127.126000C157.247893,124.788784,159.817368,122.607418,162.517000,120.595000C162.941000,120.281000,163.367000,119.980000,163.794000,119.678000C160.049516,119.571885,156.302775,119.783309,152.594000,120.310000C149.476380,120.757823,146.390215,121.402444,143.354000,122.240000C74.210000,141.190000,48.720000,229,48.990000,275.280000C49.560000,371.380000,130.270000,499,201.620000,499C216.030000,499,230.430000,490.910000,240.520000,484.720000C246.160000,481.260000,262.600000,479.350000,271.480000,484.720000C281.610000,490.850000,295.580000,499,310.380000,499C331.199000,499,356.055000,483.300000,379.602000,458.842000C307.452000,471.731000,188.936000,399.976000,144.324000,319.052000Z" transform="matrix(1 0 0 1 2.55087753706125 194.14293641640708)" fill="rgb(224,27,51)" stroke="none" stroke-width="5.494080"/><g id="e5y2jk2x8yne75" opacity="0.6"><path id="e5y2jk2x8yne76" d="M103.033000,303.171000C100.146643,303.167004,97.672163,301.108439,97.143000,298.271000C83.260000,224.219000,115.271000,191.094000,116.643000,189.720000C118.981901,187.396327,122.757521,187.395150,125.097870,189.717365C127.438219,192.039580,127.466410,195.815096,125.161000,198.172000C124.981000,198.359000,117.823000,205.886000,112.284000,221.447000C107.105000,235.998000,102.320000,260.754000,108.939000,296.060000C109.266205,297.814668,108.796009,299.623963,107.655902,300.997308C106.515796,302.370654,104.823915,303.165745,103.039000,303.167000Z" transform="matrix(1 0 0 1 2.55087753706125 194.14293641640708)" fill="rgb(233,233,233)" stroke="none" stroke-width="5.494080"/></g><g id="e5y2jk2x8yne77" opacity="0.6"><path id="e5y2jk2x8yne78" d="M108.624000,331.800000C105.804826,331.796931,103.368013,329.831585,102.768000,327.077000L100.118000,314.917000C99.637044,312.813244,100.322909,310.613262,101.914188,309.155546C103.505467,307.697829,105.756996,307.206963,107.810637,307.870035C109.864279,308.533107,111.403634,310.247959,111.842000,312.361000L114.492000,324.521000C114.877327,326.295894,114.438643,328.149823,113.298748,329.563812C112.158854,330.977802,110.440239,331.799909,108.624000,331.800000Z" transform="matrix(1 0 0 1 2.55087753706125 194.14293641640708)" fill="rgb(233,233,233)" stroke="none" stroke-width="5.494080"/></g></g></g></g></g><g id="e5y2jk2x8yne79_to" transform="translate(98.322700,420.596164)"><g id="e5y2jk2x8yne79_tr" transform="rotate(0)"><g id="e5y2jk2x8yne79" transform="scale(1.656500,1.885850) translate(-32,-35.000750)"><path id="e5y2jk2x8yne80" d="M5.500000,15.496000L4.500000,19.496000L0.500000,20.496000L1.500000,16.496000Z" fill="rgb(101,109,120)" stroke="none" stroke-width="3.394700"/><path id="e5y2jk2x8yne81" d="M5.500000,15.496000C5.500000,15.496000,8.650000,23.316000,13.500000,27.496000C24.560000,38.166000,42.450000,38.166000,53.500000,27.496000L60.500000,20.496000L63.500000,24.496000C63.500000,24.496000,63.220000,26.686000,61.890000,29.686000L59.500000,26.496000L52.500000,33.507000C41.450000,44.166000,23.560000,44.166000,12.500000,33.507000C7.650000,29.317000,4.500000,19.496000,4.500000,19.496000Z" fill="rgb(246,187,66)" stroke="none" stroke-width="3.394700"/><path id="e5y2jk2x8yne82" d="M61.890000,29.687000L62.500000,30.497000C62.500000,30.497000,61.500000,38.187000,54.500000,44.508000C40.680000,57.838000,18.320000,57.838000,4.500000,44.508000C-2.060000,38.497000,2.520000,27.497000,2.520000,27.497000L0.500000,20.497000L4.500000,19.497000C4.500000,19.497000,7.650000,29.317000,12.500000,33.508000C23.560000,44.167000,41.450000,44.167000,52.500000,33.508000L59.500000,26.497000Z" fill="rgb(255,206,84)" stroke="none" stroke-width="3.394700"/></g></g></g></g></g><g id="e5y2jk2x8yne83_ts" transform="translate(296.078555,221.096021) scale(0,0)"><g id="e5y2jk2x8yne83" transform="translate(-254.398201,-200.888878)"><path id="e5y2jk2x8yne84" d="M249.032430,279.645250L184.643060,279.645250L179.277280,158.885450L254.398210,158.885450ZM249.032430,279.645250" fill="rgb(103,123,32)" stroke="none" stroke-width="1"/><path id="e5y2jk2x8yne85" d="M179.277280,158.885450L184.643060,279.645250L240.983760,279.645250L246.349550,158.885450ZM179.277280,158.885450" fill="rgb(133,149,77)" stroke="none" stroke-width="1"/><path id="e5y2jk2x8yne86" d="M253.231010,185.137590L180.444480,185.137590L184.176690,269.144390L249.498790,269.144390ZM253.231010,185.137590" fill="rgb(182,219,56)" stroke="none" stroke-width="1"/><path id="e5y2jk2x8yne87" d="M180.444480,185.137590L184.176690,269.144390L240.983760,269.144390L245.182330,185.137590ZM180.444480,185.137590" fill="rgb(197,226,96)" stroke="none" stroke-width="1"/><path id="e5y2jk2x8yne88" d="M334.884930,237.641840C334.884930,260.839340,315.665860,279.645250,291.958680,279.645250C268.251520,279.645250,249.032430,260.839340,249.032430,237.641840C249.032430,214.444340,268.251520,195.638440,291.958680,195.638440C315.665860,195.638440,334.884930,214.444340,334.884930,237.641840ZM334.884930,237.641840" fill="rgb(173,173,173)" stroke="none" stroke-width="1"/><path id="e5y2jk2x8yne89" d="M326.836260,237.641840C326.836260,214.554570,309.419750,195.838400,287.934360,195.838400C266.448950,195.838400,249.032430,214.554570,249.032430,237.641840C249.032430,260.729090,266.448950,279.445270,287.934360,279.445270C309.419750,279.445270,326.836260,260.729090,326.836260,237.641840ZM326.836260,237.641840" fill="rgb(230,230,230)" stroke="none" stroke-width="1"/><path id="e5y2jk2x8yne90" d="M289.275790,245.517480L294.641570,245.517480L294.641570,263.893980L289.275790,263.893980ZM289.275790,245.517480" fill="rgb(198,156,109)" stroke="none" stroke-width="1"/><g id="e5y2jk2x8yne91_to" transform="translate(284.804303,235.016620)"><g id="e5y2jk2x8yne91_tr" transform="rotate(0)"><path id="e5y2jk2x8yne91" d="M285.251450,228.453590C280.955950,224.250440,275.131670,221.890560,269.057170,221.890560L265.129790,221.890560L265.129790,225.733530C265.129790,231.677420,267.541500,237.376500,271.837000,241.579670C276.132500,245.782820,281.956800,248.142680,288.031280,248.142680L291.958680,248.142680L291.958680,244.299710C291.958680,238.355820,289.546960,232.656760,285.251450,228.453590ZM285.251450,228.453590" transform="translate(-278.544235,-235.016620)" fill="rgb(182,219,56)" stroke="none" stroke-width="1"/></g></g><g id="e5y2jk2x8yne92_to" transform="translate(305.373140,235.016620)"><g id="e5y2jk2x8yne92_tr" transform="rotate(0)"><path id="e5y2jk2x8yne92" d="M298.665900,228.453590C302.961410,224.250440,308.785690,221.890560,314.860190,221.890560L318.787600,221.890560L318.787600,225.733530C318.787600,231.677420,316.375860,237.376500,312.080360,241.579670C307.784850,245.782820,301.960570,248.142680,295.886070,248.142680L291.958680,248.142680L291.958680,244.299710C291.958680,238.355820,294.370410,232.656760,298.665900,228.453590ZM298.665900,228.453590" transform="translate(-305.373140,-235.016620)" fill="rgb(182,219,56)" stroke="none" stroke-width="1"/></g></g><g id="e5y2jk2x8yne93_to" transform="translate(301.350480,235.018480)"><g id="e5y2jk2x8yne93_tr" transform="rotate(0)"><path id="e5y2jk2x8yne93" d="M298.665900,228.453590C294.370410,232.656760,291.958680,238.355820,291.958680,244.299710L291.958680,247.761990C296.500480,246.948020,300.721310,244.818870,304.031680,241.579670C308.327190,237.376500,310.738910,231.677420,310.738910,225.733530L310.738910,222.271280C306.197120,223.085240,301.976290,225.214390,298.665900,228.453590ZM298.665900,228.453590" transform="translate(-301.348795,-235.016635)" fill="rgb(197,226,96)" stroke="none" stroke-width="1"/></g></g><g id="e5y2jk2x8yne94_ts" transform="translate(281.227115,140.508975) scale(0,0)"><path id="e5y2jk2x8yne94" d="M270.495550,140.508980C275.563960,138.855410,279.537210,134.967560,281.227120,130.008120C282.917030,134.967560,286.890270,138.855410,291.958680,140.508980C286.890270,142.162530,282.917030,146.050380,281.227120,151.009830C279.537210,146.050380,275.563960,142.162530,270.495550,140.508980ZM270.495550,140.508980" transform="translate(-281.227115,-140.508975)" fill="rgb(255,235,113)" stroke="none" stroke-width="1" stroke-dasharray="0"/></g><g id="e5y2jk2x8yne95_ts" transform="translate(324.153375,177.261955) scale(0,0)"><path id="e5y2jk2x8yne95" d="M313.421820,177.261940C318.490220,175.608370,322.463480,171.720550,324.153360,166.761100C325.843270,171.720550,329.816520,175.608370,334.884930,177.261940C329.816520,178.915520,325.843270,182.803360,324.153360,187.762810C322.463480,182.803360,318.490220,178.915520,313.421820,177.261940ZM313.421820,177.261940" transform="translate(-324.153375,-177.261955)" fill="rgb(255,235,113)" stroke="none" stroke-width="1"/></g><path id="e5y2jk2x8yne96" d="M179.277280,143.134180L184.643060,122.132490L249.032430,122.132490L254.398210,143.134180ZM179.277280,143.134180" fill="rgb(103,123,32)" stroke="none" stroke-width="1"/><path id="e5y2jk2x8yne97" d="M184.643060,122.132490L179.277280,143.134180L246.349550,143.134180L240.983760,122.132490ZM184.643060,122.132490" fill="rgb(133,149,77)" stroke="none" stroke-width="1"/><path id="e5y2jk2x8yne98" d="M200.740400,122.132490L232.935090,122.132490L232.935090,132.633330L200.740400,132.633330ZM200.740400,122.132490" fill="rgb(182,219,56)" stroke="none" stroke-width="1"/><path id="e5y2jk2x8yne99" d="M200.740400,122.132490L224.886410,122.132490L224.886410,132.633330L200.740400,132.633330ZM200.740400,122.132490" fill="rgb(197,226,96)" stroke="none" stroke-width="1"/><path id="e5y2jk2x8yne100" d="M173.911490,143.134180L259.763990,143.134180L259.763990,158.885450L173.911490,158.885450ZM173.911490,143.134180" fill="rgb(182,219,56)" stroke="none" stroke-width="1"/><path id="e5y2jk2x8yne101" d="M173.911490,143.134180L251.715330,143.134180L251.715330,158.885450L173.911490,158.885450ZM173.911490,143.134180" fill="rgb(197,226,96)" stroke="none" stroke-width="1"/><path id="e5y2jk2x8yne102" d="M203.423290,200.888850C203.423290,203.788390,201.020740,206.139280,198.057510,206.139280C195.094280,206.139280,192.691720,203.788390,192.691720,200.888850C192.691720,197.989330,195.094280,195.638440,198.057510,195.638440C201.020740,195.638440,203.423290,197.989330,203.423290,200.888850ZM203.423290,200.888850" fill="rgb(103,123,32)" stroke="none" stroke-width="1"/><path id="e5y2jk2x8yne103" d="M208.789080,248.142680C208.789080,251.042220,206.386520,253.393110,203.423290,253.393110C200.460060,253.393110,198.057510,251.042220,198.057510,248.142680C198.057510,245.243160,200.460060,242.892270,203.423290,242.892270C206.386520,242.892270,208.789080,245.243160,208.789080,248.142680ZM208.789080,248.142680" fill="rgb(103,123,32)" stroke="none" stroke-width="1"/><path id="e5y2jk2x8yne104" d="M240.983760,221.890560C240.983760,227.689620,236.178650,232.391420,230.252190,232.391420C224.325730,232.391420,219.520630,227.689620,219.520630,221.890560C219.520630,216.091500,224.325730,211.389720,230.252190,211.389720C236.178650,211.389720,240.983760,216.091500,240.983760,221.890560ZM240.983760,221.890560" fill="rgb(69,82,21)" stroke="none" stroke-width="1"/><path id="e5y2jk2x8yne105" d="M232.935090,221.890560C232.935090,216.522210,229.932550,212.169090,226.227870,212.169090C222.523170,212.169090,219.520630,216.522210,219.520630,221.890560C219.520630,227.258910,222.523170,231.612050,226.227870,231.612050C229.932550,231.612050,232.935090,227.258910,232.935090,221.890560ZM232.935090,221.890560" fill="rgb(103,123,32)" stroke="none" stroke-width="1"/></g></g></svg>